<svg width="99" height="168" viewBox="0 0 99 168" fill="none" xmlns="http://www.w3.org/2000/svg">
<path fill-rule="evenodd" clip-rule="evenodd" d="M99 64.5H87C87 55.5 85.5 54 72 40.5L49.5 18L27 40.5C19.5 48 12 55.5 12 64.5C12 72.3568 17.7157 77.9273 24.1574 84.2054C25.0947 85.1189 26.0473 86.0473 27 87L49.5 109.5L55.5 103.5L64.5 112.5L49.5 127.5L19.5 97.5C18.024 96.024 16.656 94.668 15.3885 93.4116C2.48727 80.6236 0 78.1582 0 64.5C0 49.5 1.5 48 19.5 30L49.5 0L79.5 30C91.7845 42.2845 96.3301 46.8301 98.0121 52.2623C99 55.453 99 58.9496 99 64.5ZM0 103.5H12C12 112.5 13.5 114 27 127.5L49.5 150L72 127.5C79.5 120 87 112.5 87 103.5C87 95.6432 81.2843 90.0727 74.8426 83.7946C73.9053 82.8811 72.9527 81.9527 72 81L49.5 58.5L43.5 64.5L34.5 55.5L49.5 40.5L79.5 70.5C80.976 71.976 82.344 73.332 83.6115 74.5884C96.5127 87.3764 99 89.8418 99 103.5C99 118.5 97.5 120 79.5 138L49.5 168L19.5 138C7.21549 125.715 2.66991 121.17 0.987936 115.738C0 112.547 0 109.05 0 103.5Z" fill="#235E0E"/>
</svg>
